<?xml version="1.0" encoding="UTF-8" standalone="no"?>
<!DOCTYPE svg PUBLIC "-//W3C//DTD SVG 1.1//EN" "http://www.w3.org/Graphics/SVG/1.1/DTD/svg11.dtd">
<svg width="100%" height="100%" viewBox="0 0 603 603" version="1.1" xmlns="http://www.w3.org/2000/svg" xmlns:xlink="http://www.w3.org/1999/xlink" xml:space="preserve" xmlns:serif="http://www.serif.com/" style="fill-rule:evenodd;clip-rule:evenodd;stroke-linejoin:round;stroke-miterlimit:1.5;">
    <g transform="matrix(1,0,0,1,-627.611,-98.6111)">
        <g transform="matrix(1,0,0,1,142,45)">
            <circle cx="787" cy="355" r="300" style="fill:rgb(255,192,203);stroke:white;stroke-width:2.78px;"/>
        </g>
        <g transform="matrix(1,0,0,1,6,6)">
            <g transform="matrix(0.8,0,0,1,185.8,52)">
                <path d="M1129,155L829,155L729,235L729,555L1129,555L1129,155Z" style="fill:none;stroke:rgb(219,112,147);stroke-width:18.41px;stroke-linecap:round;stroke-linejoin:miter;"/>
            </g>
            <path d="M849,207L849,287L769,287" style="fill:none;stroke:rgb(219,112,147);stroke-width:16.67px;stroke-linecap:round;stroke-linejoin:miter;"/>
            <g transform="matrix(1,0,0,2,0,-247)">
                <rect x="879" y="247" width="180" height="40" style="fill:white;stroke:rgb(219,112,147);stroke-width:10.54px;stroke-linecap:round;stroke-linejoin:miter;"/>
            </g>
            <g transform="matrix(1,0,0,1,-4,40)">
                <path d="M809,367L1058,367" style="fill:none;stroke:rgb(219,112,147);stroke-width:16.67px;stroke-linecap:round;stroke-linejoin:miter;"/>
            </g>
            <g transform="matrix(1,0,0,1,-4,80)">
                <path d="M809,367L1058,367" style="fill:none;stroke:rgb(219,112,147);stroke-width:16.67px;stroke-linecap:round;stroke-linejoin:miter;"/>
            </g>
            <g transform="matrix(1,0,0,1,-4,120)">
                <path d="M809,367L1058,367" style="fill:none;stroke:rgb(219,112,147);stroke-width:16.67px;stroke-linecap:round;stroke-linejoin:miter;"/>
            </g>
        </g>
        <g transform="matrix(1,0,0,1,0,-7)">
            <g transform="matrix(0.8,0,0,1,185.8,52)">
                <path d="M1129,155L829,155L729,235L729,555L1129,555L1129,155Z" style="fill:none;stroke:white;stroke-width:18.41px;stroke-linecap:round;stroke-linejoin:miter;"/>
            </g>
            <path d="M849,207L849,287L769,287" style="fill:none;stroke:white;stroke-width:16.67px;stroke-linecap:round;stroke-linejoin:miter;"/>
            <g transform="matrix(1,0,0,2,0,-247)">
                <rect x="879" y="247" width="180" height="40" style="fill:white;stroke:white;stroke-width:10.54px;stroke-linecap:round;stroke-linejoin:miter;"/>
            </g>
            <g transform="matrix(1,0,0,1,-4,40)">
                <path d="M809,367L1058,367" style="fill:none;stroke:white;stroke-width:16.67px;stroke-linecap:round;stroke-linejoin:miter;"/>
            </g>
            <g transform="matrix(1,0,0,1,-4,80)">
                <path d="M809,367L1058,367" style="fill:none;stroke:white;stroke-width:16.67px;stroke-linecap:round;stroke-linejoin:miter;"/>
            </g>
            <g transform="matrix(1,0,0,1,-4,120)">
                <path d="M809,367L1058,367" style="fill:none;stroke:white;stroke-width:16.67px;stroke-linecap:round;stroke-linejoin:miter;"/>
            </g>
            <g transform="matrix(1.78951,0,0,1.78627,-743.312,-180.055)">
                <text x="905.084px" y="287.018px" style="font-family:'Arial-Black', 'Arial Black', sans-serif;font-weight:900;font-size:66.667px;fill:rgb(219,112,147);">CV</text>
            </g>
            <g transform="matrix(1.78951,0,0,1.78627,-746.312,-183.055)">
                <text x="905.084px" y="287.018px" style="font-family:'Arial-Black', 'Arial Black', sans-serif;font-weight:900;font-size:66.667px;fill:rgb(255,192,203);">CV</text>
            </g>
        </g>
    </g>
</svg>
