<?xml version="1.0" encoding="UTF-8" standalone="no"?>
<!DOCTYPE svg PUBLIC "-//W3C//DTD SVG 1.1//EN" "http://www.w3.org/Graphics/SVG/1.1/DTD/svg11.dtd">
<svg width="100%" height="100%" viewBox="0 0 150 150" version="1.1" xmlns="http://www.w3.org/2000/svg" xmlns:xlink="http://www.w3.org/1999/xlink" xml:space="preserve" xmlns:serif="http://www.serif.com/" style="fill-rule:evenodd;clip-rule:evenodd;stroke-linejoin:round;stroke-miterlimit:1.41421;">
    <g transform="matrix(1,0,0,1,-979,-546)">
        <path d="M1054,546C1095.39,546 1129,579.606 1129,621C1129,662.394 1095.39,696 1054,696C1012.61,696 979,662.394 979,621C979,579.606 1012.61,546 1054,546ZM1076.86,678.5C1095.98,678.5 1111.5,662.977 1111.5,643.856L1111.5,598.144C1111.5,579.024 1095.98,563.5 1076.86,563.5L1031.14,563.5C1012.02,563.5 996.5,579.024 996.5,598.144L996.5,643.856C996.5,662.977 1012.02,678.5 1031.14,678.5L1076.86,678.5ZM1073.99,570.688C1090.53,570.688 1103.95,584.116 1103.95,600.656L1103.95,641.344C1103.95,657.884 1090.53,671.313 1073.99,671.313L1033.3,671.313C1016.76,671.313 1003.33,657.884 1003.33,641.344L1003.33,600.656C1003.33,584.116 1016.76,570.688 1033.3,570.688L1073.99,570.688ZM1054,591C1070.56,591 1084,604.443 1084,621C1084,637.557 1070.56,651 1054,651C1037.44,651 1024,637.557 1024,621C1024,604.443 1037.44,591 1054,591ZM1054,601.387C1064.83,601.387 1073.61,610.175 1073.61,621C1073.61,631.825 1064.83,640.613 1054,640.613C1043.17,640.613 1034.39,631.825 1034.39,621C1034.39,610.175 1043.17,601.387 1054,601.387ZM1083.64,583.5C1087.59,583.5 1090.79,586.701 1090.79,590.643C1090.79,594.585 1087.59,597.786 1083.64,597.786C1079.7,597.786 1076.5,594.585 1076.5,590.643C1076.5,586.701 1079.7,583.5 1083.64,583.5Z" style="fill:white;"/>
    </g>
</svg>
